<svg width="336" height="304" viewBox="0 0 336 304" fill="none" xmlns="http://www.w3.org/2000/svg">
<g clip-path="url(#clip0_266011_7246)">
<path d="M0.675649 249.837C3.6088 248.401 4.854 244.59 8.03619 243.596C11.3014 242.574 14.9263 244.59 17.9148 242.381C19.2153 241.414 20.1838 239.813 21.7611 239.233C23.1447 238.736 24.5836 239.288 25.9118 239.702C27.0463 240.061 28.1808 240.393 29.3153 240.752C33.8811 242.16 38.4192 243.541 42.9849 244.949C48.1594 246.523 53.3063 248.125 58.4808 249.699C58.9789 249.864 59.2002 249.063 58.7021 248.898C49.2386 245.998 39.8027 243.099 30.3392 240.199C28.1255 239.537 25.8288 238.515 23.5321 238.239C21.9271 238.045 20.6543 238.68 19.5197 239.73C17.9425 241.193 16.7526 242.546 14.4559 242.657C12.5466 242.767 10.6649 242.27 8.75563 242.574C4.82632 243.182 3.60879 247.462 0.288249 249.091C-0.209832 249.367 0.205238 250.085 0.675649 249.837Z" fill="#E8E8E8"/>
<path d="M50.4002 246.357C52.3649 246.854 53.9145 244.893 55.6854 244.314C58.0652 243.513 60.6109 243.844 62.7693 245.087C63.2397 245.363 63.6547 244.645 63.1843 244.369C61.358 243.292 59.2827 242.85 57.1797 243.126C56.2665 243.237 55.4087 243.485 54.5786 243.844C53.3887 244.369 52.0052 245.888 50.6216 245.556C50.0959 245.418 49.8745 246.219 50.4002 246.357Z" fill="#E8E8E8"/>
<path d="M71.7359 244.286C69.8819 242.767 68.1109 241.138 66.4507 239.398C65.6759 238.597 64.9288 237.741 64.2093 236.885C63.7942 236.388 63.3792 235.891 62.9918 235.394C62.7151 235.035 62.4384 234.676 62.1893 234.317C61.7466 233.875 61.7466 233.323 62.217 232.715C62.549 232.853 63.0748 232.522 62.7981 232.136C61.1101 229.871 59.8649 227.386 59.0625 224.68C58.8964 224.845 58.7304 225.011 58.5644 225.177C59.4775 225.425 60.1416 225.895 60.6397 226.668C60.9164 227.11 61.6359 226.723 61.3592 226.254C57.2362 219.129 53.8603 211.618 51.3145 203.803C51.0932 203.941 50.8441 204.079 50.6228 204.217C62.217 215.595 67.4745 231.418 77.2424 244.148C77.5745 244.562 78.294 244.148 77.9619 243.734C68.1663 230.948 62.8534 215.07 51.2039 203.638C50.9271 203.361 50.3737 203.638 50.5121 204.052C53.0855 211.949 56.4614 219.516 60.6397 226.696C60.8888 226.557 61.1101 226.419 61.3592 226.281C60.7227 225.315 59.8926 224.68 58.7858 224.404C58.4814 224.321 58.177 224.597 58.2877 224.901C59.1178 227.662 60.3907 230.23 62.1063 232.55C62.3 232.356 62.4937 232.163 62.6874 231.97C61.9126 231.611 61.0548 231.97 60.8611 232.881C60.6121 234.179 62.1893 235.615 62.9088 236.526C65.3715 239.591 68.1663 242.38 71.2101 244.866C71.5699 245.197 72.151 244.617 71.7359 244.286Z" fill="#E8E8E8"/>
<path d="M68.829 227.026C63.7375 219.432 59.6145 211.286 56.5707 202.671C56.4877 202.836 56.377 203.002 56.294 203.168C57.2348 202.947 58.0372 203.306 58.563 204.134C58.8397 204.604 59.5038 204.189 59.2824 203.72C54.9934 194.469 50.6214 184.832 50.9257 174.421C50.6767 174.504 50.4 174.559 50.1509 174.642C57.5392 189.83 64.5676 205.211 71.2087 220.73C71.4024 221.172 72.1219 220.841 71.9559 220.399C70.849 217.085 69.7698 213.744 68.663 210.43C68.1372 208.801 67.5838 207.199 67.0581 205.57C66.6983 204.493 65.9235 202.146 67.4731 201.566C67.3071 201.511 67.1687 201.428 67.0027 201.373C68.995 205.266 70.9597 209.16 72.952 213.054C73.2011 213.523 73.9205 213.109 73.6715 212.639C71.5131 208.414 70.517 203.747 70.7107 198.998C70.4339 199.025 70.1572 199.081 69.9082 199.108C75.6638 213.385 82.3326 227.303 89.8315 240.751C90.0805 241.22 90.8 240.806 90.5509 240.337C83.0797 226.944 76.4386 213.109 70.7107 198.887C70.5446 198.473 69.9082 198.501 69.9082 198.998C69.7145 203.886 70.766 208.663 72.9797 213.054C73.2287 212.915 73.4501 212.777 73.6991 212.639C71.7068 208.746 69.7422 204.852 67.7498 200.958C67.6668 200.82 67.4454 200.71 67.2794 200.765C64.5123 201.787 66.2833 205.736 66.892 207.586C68.3309 211.921 69.7422 216.284 71.1811 220.62C71.4301 220.509 71.6791 220.399 71.9282 220.288C65.2871 204.769 58.2586 189.388 50.8704 174.2C50.6767 173.813 50.0956 174.034 50.0956 174.421C49.7636 184.97 54.2186 194.773 58.563 204.134C58.812 203.996 59.0334 203.858 59.2824 203.72C58.563 202.588 57.4008 202.091 56.0726 202.367C55.8512 202.422 55.7129 202.671 55.7959 202.864C58.8674 211.535 63.0181 219.764 68.1372 227.413C68.4139 227.882 69.1334 227.468 68.829 227.026Z" fill="#E8E8E8"/>
<path d="M14.1518 280.406C23.7261 275.794 33.8261 271.1 44.7562 272.204C49.9307 272.729 54.9392 274.22 60.086 274.883C62.6871 275.214 65.3159 275.352 67.917 275.049C70.352 274.745 72.6487 273.861 75.0285 273.336C78.1 272.646 80.8948 273.364 83.8556 274.192C86.2906 274.855 88.698 275.408 91.2161 274.828C91.7419 274.717 91.5205 273.916 90.9947 274.027C85.9586 275.214 81.2268 271.597 76.1353 272.315C73.6172 272.674 71.2652 273.668 68.7748 274.11C66.146 274.551 63.4619 274.496 60.8055 274.165C55.5756 273.557 50.4841 272.011 45.2266 271.431C40.0521 270.851 34.9329 271.514 29.9798 272.95C24.3348 274.607 18.9943 277.147 13.7368 279.688C13.2387 279.909 13.6814 280.627 14.1518 280.406Z" fill="#E8E8E8"/>
<path d="M70.3237 303.298C73.5612 301.917 76.7434 300.399 79.8149 298.686C81.4199 297.775 82.9971 296.836 84.5744 295.842C85.9856 294.931 87.3968 293.633 88.9464 292.97C90.6897 292.252 93.3185 293.605 95.0618 294.13C96.9157 294.71 98.7697 295.262 100.596 295.842C104.387 297.002 108.178 298.162 111.941 299.322C112.439 299.487 112.661 298.686 112.163 298.521C108.123 297.278 104.055 296.036 100.015 294.793C98.0779 294.185 96.1409 293.605 94.2039 292.998C92.7097 292.528 90.8281 291.562 89.2508 291.949C87.7842 292.308 86.456 293.578 85.2108 294.406C83.6059 295.456 81.9456 296.477 80.2853 297.444C76.9371 299.349 73.4782 301.061 69.9086 302.552C69.4106 302.773 69.8533 303.491 70.3237 303.298Z" fill="#E8E8E8"/>
<path d="M104.747 304.154C106.85 303.105 108.953 302.028 111.056 300.979C112.993 299.984 115.068 298.659 117.282 298.466C119.523 298.245 121.266 299.708 123.203 300.564C124.836 301.282 126.607 301.696 128.378 301.807C132.528 302.028 136.402 299.957 140.525 300.178C143.818 300.371 147.139 303.077 150.376 301.365C150.847 301.117 150.432 300.399 149.961 300.647C147.941 301.724 145.755 300.675 143.763 300.04C142.047 299.487 140.387 299.239 138.588 299.432C134.327 299.874 130.425 301.669 126.053 300.647C122.428 299.819 119.661 296.809 115.76 297.941C113.961 298.466 112.273 299.46 110.613 300.288C108.51 301.337 106.407 302.414 104.304 303.464C103.861 303.685 104.276 304.403 104.747 304.154Z" fill="#E8E8E8"/>
<path d="M120.907 298.161C119.191 296.67 117.642 295.013 116.369 293.108C115.788 292.252 115.262 291.34 114.764 290.429C114.515 289.96 114.293 289.49 114.1 289.021C113.934 288.634 113.768 288.275 113.629 287.889C113.38 287.474 113.491 287.088 113.961 286.729C114.21 286.618 114.46 286.508 114.709 286.397C111.665 281.924 109.755 276.843 109.119 271.486C108.87 271.596 108.649 271.679 108.4 271.79C108.898 272.425 109.396 273.06 109.921 273.723C110.226 274.109 110.807 273.612 110.586 273.225C105.771 264.637 103.197 254.972 103.142 245.142C102.893 245.252 102.672 245.335 102.423 245.445C104.304 246.964 105.743 248.842 106.629 251.079C106.878 250.968 107.127 250.858 107.376 250.747C105.217 246.191 104.775 241.055 106.047 236.195C105.771 236.195 105.522 236.195 105.245 236.195C110.918 252.404 116.563 268.586 122.235 284.796C122.401 285.293 123.204 285.072 123.038 284.575C120.187 276.263 118.776 267.537 118.859 258.728C118.61 258.838 118.389 258.921 118.14 259.032C119.828 260.55 120.879 262.456 121.267 264.693C121.35 265.162 122.097 265.052 122.069 264.582C121.986 262.898 121.875 261.186 121.792 259.501C121.571 259.612 121.377 259.75 121.156 259.86C122.623 260.799 122.899 263.284 123.37 264.831C123.868 266.488 124.366 268.144 124.892 269.829C125.915 273.253 126.967 276.65 127.991 280.074C130.066 286.895 132.141 293.743 134.217 300.564C134.383 301.061 135.185 300.867 135.019 300.343C132.778 292.997 130.564 285.624 128.323 278.279C127.244 274.689 126.137 271.099 125.058 267.509C124.504 265.659 123.951 263.837 123.397 261.986C123.038 260.854 122.623 259.832 121.599 259.17C121.35 259.004 120.962 259.225 120.962 259.529C121.045 261.213 121.156 262.925 121.239 264.61C121.516 264.582 121.792 264.527 122.041 264.499C121.654 262.124 120.492 260.053 118.693 258.452C118.416 258.203 118.001 258.369 117.974 258.755C117.891 267.62 119.302 276.429 122.18 284.823C122.457 284.741 122.706 284.685 122.982 284.603C117.31 268.393 111.665 252.211 105.992 236.001C105.854 235.642 105.3 235.587 105.19 236.001C103.861 241.11 104.36 246.439 106.601 251.189C106.795 251.603 107.542 251.3 107.348 250.858C106.407 248.483 104.941 246.467 102.921 244.865C102.644 244.645 102.201 244.783 102.201 245.169C102.257 255.138 104.858 264.969 109.755 273.667C109.977 273.502 110.198 273.336 110.42 273.17C109.921 272.535 109.423 271.9 108.898 271.237C108.676 270.961 108.15 271.182 108.178 271.541C108.815 277.064 110.752 282.283 113.878 286.867C114.155 287.254 114.709 287.005 114.626 286.536C114.487 285.762 113.574 285.486 112.938 285.956C111.775 286.784 112.91 288.745 113.325 289.684C114.902 293.191 117.254 296.256 120.16 298.769C120.741 299.072 121.322 298.493 120.907 298.161Z" fill="#E8E8E8"/>
<path d="M91.9627 236.223C91.603 231.031 101.039 234.013 103.668 234.511C107.984 235.311 112.273 236.112 116.59 236.913C125.196 238.515 133.829 240.116 142.435 241.718C142.961 241.828 143.182 241.028 142.656 240.917C132.778 239.067 122.927 237.244 113.048 235.394C108.206 234.483 103.363 233.572 98.5208 232.688C96.7775 232.357 94.7575 231.998 93.1249 232.909C91.8797 233.572 91.0496 234.787 91.1603 236.223C91.1603 236.747 92.0181 236.747 91.9627 236.223Z" fill="#E8E8E8"/>
<path d="M136.707 240.807C139.585 241.11 141.356 238.377 143.597 237.051C145.506 235.946 147.167 236.803 149.131 237.189C151.317 237.631 153.559 237.686 155.772 237.41C156.298 237.355 156.298 236.526 155.772 236.582C153.282 236.885 150.791 236.775 148.356 236.167C146.89 235.781 145.562 235.311 144.095 235.891C141.494 236.885 139.723 240.31 136.707 239.978C136.181 239.923 136.181 240.751 136.707 240.807Z" fill="#E8E8E8"/>
<path d="M189.477 293.909C196.118 291.59 202.815 289.27 209.677 287.613C216.844 285.901 224.066 285.211 231.427 285.432C238.704 285.653 245.926 286.481 253.176 287.144C260.454 287.834 267.731 288.497 275.009 289.187C283.366 289.96 291.75 290.734 300.107 291.534C300.632 291.59 300.632 290.761 300.107 290.706C285.192 289.325 270.277 287.945 255.335 286.536C240.973 285.211 226.529 283.25 212.223 286.205C204.364 287.834 196.782 290.485 189.228 293.108C188.758 293.274 188.979 294.075 189.477 293.909Z" fill="#E8E8E8"/>
<path d="M218.725 266.736C223.678 265.687 228.327 263.616 233.003 261.738C238.012 259.75 243.076 258.369 248.444 257.9C253.868 257.43 259.319 257.707 264.715 258.038C270.138 258.369 275.562 258.756 281.013 259.142C287.35 259.612 293.714 260.137 300.051 260.689C300.576 260.744 300.576 259.916 300.051 259.86C288.816 258.866 277.582 258.01 266.32 257.292C255.611 256.602 245.068 256.326 234.857 260.109C229.434 262.125 224.176 264.693 218.476 265.908C218.006 266.046 218.199 266.847 218.725 266.736Z" fill="#E8E8E8"/>
<path d="M282.507 234.897C286.464 231.887 290.643 228.932 295.07 226.668C297.228 225.563 299.553 224.68 301.988 224.486C304.616 224.265 307.245 224.79 309.819 225.122C315.049 225.757 320.306 226.143 325.564 226.475C329.05 226.696 333.478 227.193 335.94 224.155C336.272 223.741 335.691 223.161 335.359 223.575C332.564 227.027 326.67 225.729 322.852 225.48C317.594 225.122 312.392 224.624 307.162 223.962C304.921 223.686 302.707 223.465 300.466 223.879C298.252 224.265 296.177 225.149 294.212 226.198C289.951 228.463 285.911 231.279 282.064 234.207C281.677 234.51 282.092 235.228 282.507 234.897Z" fill="#E8E8E8"/>
<path d="M130.177 230.341C134.106 227.386 138.063 224.459 141.992 221.504C145.756 218.687 149.27 215.733 154.195 215.484C158.844 215.263 163.604 215.788 168.225 216.174C173.206 216.589 178.159 217.141 183.084 217.831C187.235 218.411 192.188 219.958 196.117 217.804C196.588 217.555 196.173 216.837 195.702 217.086C193.682 218.19 191.441 218.19 189.2 217.914C186.792 217.61 184.385 217.196 181.977 216.865C177.329 216.23 172.652 215.705 167.948 215.318C163.327 214.932 158.54 214.379 153.919 214.656C149.63 214.904 146.448 217.113 143.099 219.626C138.644 222.94 134.217 226.281 129.762 229.595C129.347 229.954 129.762 230.672 130.177 230.341Z" fill="#E8E8E8"/>
<path d="M285.854 259.529C286.103 257.707 286.463 255.94 286.989 254.172C287.238 253.344 287.487 252.515 287.819 251.687C288.013 251.19 288.538 250.361 289.258 250.555C289.618 250.665 289.784 251.908 289.811 252.156C289.867 252.598 290.475 252.736 290.614 252.267C291.914 248.042 293.409 243.403 297.393 240.945C297.172 240.834 296.978 240.696 296.757 240.586C296.757 241.276 296.729 241.994 296.729 242.685C296.729 243.071 297.31 243.265 297.504 242.906C299.967 237.797 302.651 232.44 307.632 229.347C307.438 229.181 307.216 229.043 307.023 228.877C304.532 235.312 301.627 241.58 298.334 247.655C298.113 248.042 298.666 248.539 298.998 248.152C300.852 245.943 302.734 243.734 305.169 242.132C304.975 241.939 304.781 241.746 304.588 241.552C301.516 248.014 298.168 254.31 294.488 260.441C294.211 260.91 294.93 261.324 295.207 260.855C298.86 254.724 302.236 248.428 305.307 241.967C305.473 241.635 305.113 241.138 304.726 241.387C302.236 243.044 300.299 245.28 298.389 247.545C298.611 247.71 298.832 247.876 299.053 248.042C302.374 241.911 305.307 235.588 307.825 229.071C307.964 228.739 307.493 228.436 307.216 228.601C302.097 231.777 299.33 237.217 296.784 242.464C297.033 242.547 297.31 242.602 297.559 242.685C297.559 241.994 297.587 241.276 297.587 240.586C297.587 240.282 297.227 240.061 296.95 240.227C292.8 242.795 291.167 247.6 289.811 252.046C290.088 252.074 290.365 252.129 290.614 252.156C290.475 250.748 289.203 248.346 287.653 250.141C286.878 251.052 286.574 252.543 286.242 253.675C285.688 255.498 285.301 257.375 285.024 259.281C284.996 259.833 285.771 260.054 285.854 259.529Z" fill="#E8E8E8"/>
<path d="M92.5165 212.916C94.6749 211.756 96.8609 210.596 99.2406 209.961C101.759 209.299 104.249 209.52 106.767 209.851C111.776 210.514 116.784 211.176 121.765 211.839C122.291 211.922 122.291 211.094 121.765 211.011C116.424 210.293 111.056 209.52 105.716 208.884C103.253 208.581 100.901 208.581 98.5212 209.271C96.2521 209.934 94.1491 211.066 92.0738 212.171C91.6034 212.474 92.0461 213.165 92.5165 212.916Z" fill="#E8E8E8"/>
<path d="M260.84 25.6079C262.833 23.9234 265.627 24.2548 267.813 25.3318C269.474 26.1326 270.83 27.7618 272.767 27.8447C274.565 27.8999 276.059 26.6849 277.581 25.8841C278.605 25.3594 279.657 25.0004 280.819 25.2489C282.064 25.4975 283.143 26.2154 284.278 26.7125C288.013 28.3417 290.504 26.0774 293.658 24.2824C294.544 23.7854 295.485 23.3435 296.508 23.2607C297.809 23.1502 298.971 23.7301 300.133 24.2272C301.96 25.0004 303.343 25.3042 305.197 24.5586C307.107 23.813 308.656 23.9234 310.565 24.6138C311.783 25.0556 312.945 25.6079 314.218 25.8841C316.127 26.3259 318.175 26.2154 319.614 24.7519C320.001 24.3653 319.393 23.7854 319.033 24.172C317.179 26.0498 314.356 25.1661 312.226 24.3377C310.067 23.5092 307.854 22.6256 305.557 23.4816C304.118 24.0339 303.15 24.4205 301.6 23.8958C300.548 23.5368 299.58 22.9569 298.501 22.6532C296.868 22.1561 295.346 22.4323 293.852 23.1779C292.136 24.0339 290.642 25.387 288.844 26.105C286.464 27.0439 284.61 25.8012 282.451 24.8899C280.874 24.2272 279.38 24.1167 277.803 24.8071C275.893 25.6631 274.039 27.5409 271.798 26.7401C270.608 26.3259 269.667 25.3594 268.588 24.7519C267.675 24.2548 266.679 23.8958 265.655 23.7025C263.69 23.3435 261.781 23.6749 260.231 24.9728C259.844 25.387 260.453 25.9669 260.84 25.6079Z" fill="#E8E8E8"/>
<path d="M270.803 44.4681C271.328 44.4681 271.328 43.6396 270.803 43.6396C270.277 43.6396 270.277 44.4681 270.803 44.4681Z" fill="#E8E8E8"/>
<path d="M276.336 47.4779C277.636 45.1307 280.708 46.2629 282.617 47.0361C284.526 47.8093 286.242 48.2787 288.262 47.5884C289.922 47.0085 291.416 45.9039 293.132 45.5173C295.512 44.965 296.868 46.9808 299.026 47.4503C302.402 48.1959 305.805 44.4403 308.988 46.0143C309.873 46.4562 310.482 47.0361 311.533 46.9532C312.502 46.898 313.387 46.4286 314.328 46.2076C316.957 45.6001 319.696 46.0696 322.048 47.3674C322.519 47.616 322.934 46.898 322.463 46.6495C320.969 45.821 319.364 45.324 317.676 45.1583C316.818 45.0755 315.933 45.1031 315.075 45.2411C314.051 45.3792 313.111 45.821 312.114 46.0143C310.759 46.2629 310.177 45.6001 309.071 45.1307C308.517 44.9098 307.908 44.7993 307.327 44.8269C305.944 44.8822 304.616 45.4621 303.343 45.9315C301.71 46.539 299.967 47.1189 298.306 46.2905C296.895 45.6001 295.788 44.5508 294.128 44.5508C290.697 44.5784 288.29 47.8645 284.665 46.8704C281.98 46.1248 277.664 43.5014 275.671 47.0361C275.367 47.5331 276.087 47.9473 276.336 47.4779Z" fill="#E8E8E8"/>
<path d="M249.496 80.5328C251.46 78.9864 253.702 79.0692 255.86 80.0633C257.05 80.6156 258.323 81.1403 259.568 80.3947C260.287 79.9529 260.758 79.2625 261.616 79.014C262.529 78.7378 263.497 78.9311 264.383 79.1521C265.96 79.5387 267.482 80.229 269.114 80.3395C271.051 80.4775 272.822 79.6491 274.704 79.4558C276.724 79.2625 278.135 80.4775 280.017 80.7537C281.843 81.0022 283.254 79.5386 285.081 79.8148C287.294 80.1462 289.48 80.8917 291.666 81.444C292.192 81.5821 292.414 80.7813 291.888 80.6432C289.591 80.0633 287.211 79.1797 284.859 78.9311C282.867 78.7102 281.428 80.3395 279.436 79.7319C277.582 79.1797 276.254 78.3788 274.261 78.655C272.131 78.9587 270.194 79.7872 268.008 79.3177C266.32 78.9587 264.687 78.1579 262.944 78.0475C262.307 78.0199 261.643 78.0751 261.035 78.3236C260.26 78.6274 259.845 79.2625 259.125 79.6767C257.465 80.6432 255.224 78.5998 253.453 78.4617C251.765 78.3236 250.215 78.9035 248.887 79.9252C248.472 80.2842 249.081 80.8641 249.496 80.5328Z" fill="#E8E8E8"/>
<path d="M90.8553 20.2777C91.381 20.2777 91.381 19.4492 90.8553 19.4492C90.3295 19.4492 90.3295 20.2777 90.8553 20.2777Z" fill="#E8E8E8"/>
<path d="M93.2905 20.9131C93.7885 18.4554 97.0538 20.0294 98.2436 20.775C99.5995 21.6311 101.038 22.4043 102.699 21.9348C104.497 21.4101 105.715 19.8637 107.707 19.7533C109.589 19.6704 111.415 20.5265 113.186 21.0788C114.708 21.5482 116.313 21.8796 117.89 21.493C119.744 21.0511 121.321 19.7533 123.203 19.4219C126.911 18.7868 130.259 21.7967 134.022 20.6369C134.521 20.4713 134.327 19.6704 133.801 19.8361C129.872 21.0788 126.136 17.5994 122.152 18.842C120.104 19.4771 118.388 20.9131 116.147 20.8302C114.072 20.7474 112.19 19.7533 110.225 19.2562C108.676 18.8696 107.098 18.7592 105.604 19.4495C104.746 19.8361 103.999 20.4712 103.141 20.8855C101.73 21.5482 100.54 21.1616 99.2675 20.4436C97.8839 19.6428 96.694 18.7039 95.0061 18.842C93.8162 18.9248 92.7647 19.5324 92.5433 20.7474C92.405 21.2168 93.2074 21.4378 93.2905 20.9131Z" fill="#E8E8E8"/>
<path d="M95.8085 182.153C99.1014 180.773 102.422 183.23 105.742 183.396C107.458 183.479 109.118 183.065 110.806 182.733C112.937 182.319 114.763 182.291 116.811 183.147C118.056 183.672 119.191 184.003 120.464 183.506C121.183 183.23 121.792 182.761 122.511 182.512C123.314 182.236 124.144 182.181 125.002 182.181C127.962 182.236 130.923 183.258 133.746 181.932C134.216 181.711 133.801 180.994 133.331 181.214C130.314 182.623 126.966 181.076 123.784 181.408C122.262 181.573 121.266 182.457 119.855 182.871C118.167 183.368 116.507 181.932 114.846 181.684C111.277 181.132 107.901 183.12 104.304 182.402C101.426 181.822 98.5203 180.137 95.5872 181.38C95.1167 181.573 95.3381 182.374 95.8085 182.153Z" fill="#E8E8E8"/>
<path d="M35.9834 141.477C38.398 141.477 40.3554 139.524 40.3554 137.114C40.3554 134.704 38.398 132.751 35.9834 132.751C33.5688 132.751 31.6113 134.704 31.6113 137.114C31.6113 139.524 33.5688 141.477 35.9834 141.477Z" fill="#0A3871"/>
<path d="M290.476 111.488C292.172 111.488 293.547 110.115 293.547 108.423C293.547 106.73 292.172 105.357 290.476 105.357C288.779 105.357 287.404 106.73 287.404 108.423C287.404 110.115 288.779 111.488 290.476 111.488Z" fill="#0A3871"/>
<path d="M262.833 4.70356C264.087 4.70356 265.103 3.68976 265.103 2.43918C265.103 1.1886 264.087 0.174805 262.833 0.174805C261.58 0.174805 260.564 1.1886 260.564 2.43918C260.564 3.68976 261.58 4.70356 262.833 4.70356Z" fill="#0A3871"/>
<path d="M162.885 201.069C164.444 201.069 165.707 199.808 165.707 198.252C165.707 196.697 164.444 195.436 162.885 195.436C161.326 195.436 160.062 196.697 160.062 198.252C160.062 199.808 161.326 201.069 162.885 201.069Z" fill="#0A3871"/>
<path d="M32.7746 41.0995C34.5627 41.0995 36.0122 39.6529 36.0122 37.8686C36.0122 36.0842 34.5627 34.6377 32.7746 34.6377C30.9866 34.6377 29.5371 36.0842 29.5371 37.8686C29.5371 39.6529 30.9866 41.0995 32.7746 41.0995Z" fill="#0A3871"/>
<path d="M144.399 154.456C145.423 154.456 146.253 153.628 146.253 152.606C146.253 151.584 145.423 150.756 144.399 150.756C143.375 150.756 142.545 151.584 142.545 152.606C142.545 153.628 143.375 154.456 144.399 154.456Z" fill="#0A3871"/>
<path d="M319.393 170.197C320.952 170.197 322.215 168.936 322.215 167.38C322.215 165.825 320.952 164.563 319.393 164.563C317.834 164.563 316.57 165.825 316.57 167.38C316.57 168.936 317.834 170.197 319.393 170.197Z" fill="#0A3871"/>
<path d="M11.7436 216.754C12.9051 216.754 13.8467 215.814 13.8467 214.655C13.8467 213.496 12.9051 212.557 11.7436 212.557C10.5822 212.557 9.64062 213.496 9.64062 214.655C9.64062 215.814 10.5822 216.754 11.7436 216.754Z" fill="#0A3871"/>
<path d="M97.7459 53.6637C95.3386 58.5514 92.9035 63.4392 90.4961 68.3269C100.458 81.6647 110.419 94.9748 120.381 108.313C122.954 104.419 125.5 100.442 128.074 96.4383C134.134 86.939 139.917 77.5501 145.451 68.2441C143.569 63.4668 141.66 58.6619 139.778 53.8846C138.561 53.2495 137.343 52.642 136.126 52.0068C124.338 52.0345 112.55 52.0621 100.79 52.0897C99.7383 52.642 98.7421 53.1666 97.7459 53.6637Z" fill="white"/>
<path d="M90.8296 68.547C92.9326 63.9354 95.091 59.3514 97.3047 54.7951C97.5261 54.3256 96.8343 53.8838 96.5853 54.3808C94.3715 58.9372 92.2132 63.5212 90.1102 68.1328C89.8888 68.6022 90.6082 69.0441 90.8296 68.547Z" fill="black"/>
<path d="M90.2747 69.0448C100.015 82.3825 109.949 95.5546 120.077 108.616C120.409 109.03 120.99 108.45 120.658 108.036C110.585 95.0299 100.707 81.9131 90.9942 68.6306C90.6898 68.2163 89.9703 68.6306 90.2747 69.0448Z" fill="black"/>
<path d="M97.4975 54.3257C98.6597 53.7182 99.7943 53.0831 100.956 52.4756C101.427 52.227 101.012 51.5091 100.541 51.7576C99.3792 52.3651 98.2447 53.0002 97.0825 53.6078C96.5844 53.8839 97.0271 54.5743 97.4975 54.3257Z" fill="black"/>
<path d="M101.648 52.5306C110.282 52.5306 118.943 52.5306 127.576 52.5306C128.102 52.5306 128.102 51.7021 127.576 51.7021C118.943 51.7021 110.282 51.7021 101.648 51.7021C101.122 51.7021 101.122 52.5306 101.648 52.5306Z" fill="black"/>
<path d="M145.84 68.161C144.096 63.5494 142.298 58.9931 140.444 54.4091C140.25 53.912 139.448 54.1329 139.641 54.63C141.495 59.1864 143.294 63.7703 145.037 68.3819C145.231 68.879 146.033 68.6581 145.84 68.161Z" fill="black"/>
<path d="M144.926 68.5751C136.818 81.83 128.545 95.0021 120.105 108.064C119.8 108.505 120.52 108.92 120.824 108.478C129.264 95.4163 137.538 82.2718 145.645 68.9893C145.922 68.5475 145.203 68.1057 144.926 68.5751Z" fill="black"/>
<path d="M139.945 53.5527C138.977 52.9452 138.008 52.3101 137.04 51.7025C136.597 51.4264 136.182 52.1168 136.625 52.4205C137.593 53.028 138.562 53.6632 139.53 54.2707C140.001 54.5744 140.416 53.8565 139.945 53.5527Z" fill="black"/>
<path d="M136.1 51.6201C128.877 51.6201 121.655 51.6201 114.461 51.6201C113.935 51.6201 113.935 52.4485 114.461 52.4485C121.683 52.4485 128.905 52.4485 136.1 52.4485C136.625 52.4485 136.625 51.6201 136.1 51.6201Z" fill="black"/>
<path d="M91.1611 68.9617C96.1142 66.8354 101.067 64.7091 106.02 62.5828C106.519 62.3619 106.076 61.6715 105.605 61.8648C100.652 63.9911 95.6991 66.1174 90.746 68.2437C90.2756 68.4647 90.6907 69.1826 91.1611 68.9617Z" fill="black"/>
<path d="M97.6368 54.0773C100.681 54.5468 103.669 55.2095 106.63 56.0379C107.156 56.176 107.377 55.3752 106.851 55.2371C103.891 54.3811 100.902 53.746 97.8582 53.2765C97.3324 53.1937 97.0834 53.9945 97.6368 54.0773Z" fill="black"/>
<path d="M106.407 55.8996C107.071 57.9707 107.652 60.0418 108.151 62.1681C108.261 62.6928 109.064 62.4718 108.953 61.9472C108.455 59.8209 107.874 57.7498 107.21 55.6787C107.044 55.1816 106.241 55.3749 106.407 55.8996Z" fill="black"/>
<path d="M107.681 55.9827C115.097 55.9827 122.486 55.9827 129.901 55.9827C130.427 55.9827 130.427 55.1543 129.901 55.1543C122.486 55.1543 115.097 55.1543 107.681 55.1543C107.156 55.1543 107.156 55.9827 107.681 55.9827Z" fill="black"/>
<path d="M129.541 56.1486C129.265 57.6674 128.988 59.2138 128.711 60.7326C128.628 61.2573 129.431 61.4782 129.514 60.9535C129.79 59.4347 130.067 57.8883 130.344 56.3696C130.427 55.8449 129.624 55.624 129.541 56.1486Z" fill="black"/>
<path d="M108.594 62.2239C115.069 62.2239 121.544 62.2239 128.046 62.2239C128.572 62.2239 128.572 61.3955 128.046 61.3955C121.571 61.3955 115.096 61.3955 108.594 61.3955C108.068 61.3955 108.068 62.2239 108.594 62.2239Z" fill="black"/>
<path d="M130.704 55.9832C133.72 55.3481 136.708 54.713 139.724 54.0778C140.25 53.9674 140.029 53.1666 139.503 53.277C136.487 53.9122 133.498 54.5473 130.482 55.1824C129.957 55.2929 130.178 56.0937 130.704 55.9832Z" fill="black"/>
<path d="M129.32 61.9748C132.115 62.4166 134.716 63.9906 137.262 65.1781C139.974 66.4483 142.658 67.7186 145.369 68.9888C145.84 69.2097 146.283 68.4918 145.785 68.2709C142.907 66.9178 140.057 65.5923 137.179 64.2392C134.744 63.0794 132.226 61.6158 129.542 61.174C129.016 61.0911 128.794 61.8919 129.32 61.9748Z" fill="black"/>
<path d="M108.842 63.4936C112.439 78.2949 116.009 93.1238 119.606 107.925C119.745 108.45 120.519 108.229 120.409 107.704C116.811 92.9029 113.242 78.074 109.645 63.2727C109.506 62.748 108.704 62.9689 108.842 63.4936Z" fill="black"/>
<path d="M128.157 64.4885C124.781 78.7375 121.987 93.1522 119.828 107.65C119.745 108.174 120.548 108.395 120.631 107.871C122.789 93.3731 125.584 78.986 128.96 64.7094C129.098 64.1847 128.296 63.9638 128.157 64.4885Z" fill="black"/>
<path d="M128.434 36.8464C129.679 33.6707 130.371 30.3294 130.482 26.9052C130.509 26.3806 129.679 26.3806 129.651 26.9052C129.541 30.2466 128.849 33.5051 127.631 36.6255C127.438 37.1225 128.24 37.3158 128.434 36.8464Z" fill="black"/>
<path d="M134.106 37.3981C136.763 34.3881 139.751 31.7371 143.1 29.5003C143.542 29.1966 143.127 28.4786 142.684 28.7824C139.281 31.0468 136.209 33.753 133.525 36.8182C133.166 37.2048 133.747 37.7847 134.106 37.3981Z" fill="black"/>
<path d="M139.559 42.5069C142.99 41.4851 146.532 41.0985 150.102 41.3747C150.627 41.4023 150.627 40.5739 150.102 40.5463C146.449 40.2701 142.852 40.6567 139.338 41.7061C138.839 41.8717 139.033 42.6726 139.559 42.5069Z" fill="black"/>
<path d="M81.2548 23.1494C81.5869 28.617 78.5154 33.8361 73.5899 36.211C73.3132 36.349 73.3408 36.7632 73.5899 36.9289C78.1003 39.6351 80.1756 44.6057 81.3655 49.4935C81.5039 50.0181 82.2786 49.7972 82.168 49.2726C80.9227 44.1639 78.709 39 74.0049 36.211C74.0049 36.4595 74.0049 36.6804 74.0049 36.9289C79.1795 34.416 82.4447 28.8655 82.0849 23.1494C82.0573 22.6247 81.2271 22.6247 81.2548 23.1494Z" fill="#E8E8E8"/>
<path d="M81.5583 23.1494C81.1986 28.8931 84.4638 34.4436 89.6383 36.9289C89.6383 36.6804 89.6383 36.4595 89.6383 36.211C84.9065 39.0276 82.6928 44.1915 81.4476 49.3278C81.3093 49.8524 82.1117 50.0734 82.2501 49.5487C83.4399 44.6333 85.5153 39.6351 90.0533 36.9289C90.3024 36.7909 90.3301 36.349 90.0533 36.211C85.1279 33.8361 82.0287 28.617 82.3608 23.1494C82.4161 22.6247 81.586 22.6247 81.5583 23.1494Z" fill="#E8E8E8"/>
<path d="M216.291 230.451C217.26 230.037 218.588 229.429 220.11 228.573C222.655 227.165 223.928 226.447 224.703 225.314C225.699 223.823 225.312 223.022 226.612 221.531C226.806 221.283 227.719 220.316 228.909 219.792C230.957 218.936 232.866 219.957 236.048 221.089C238.981 222.139 241.278 222.636 245.872 223.658C247.698 224.072 249.912 224.486 253.121 225.48C254.035 225.756 254.754 226.005 255.252 226.171C255.307 226.75 255.335 228.242 254.367 229.595C253.924 230.202 253.315 230.699 252.347 231.141C250.105 232.19 247.975 231.997 246.176 231.914C242.302 231.749 243.907 232.301 234.775 232.467C232.783 232.494 231.15 232.494 230.016 232.494C228.605 233.461 227.193 234.455 225.755 235.477C223.319 237.244 220.995 239.011 218.781 240.751C217.951 237.327 217.121 233.875 216.291 230.451Z" fill="black"/>
<path d="M204.751 195.104C202.758 196.154 202.537 196.54 195.121 202.836C183.555 212.639 182.282 213.164 171.794 222.304C161.75 231.031 159.868 233.212 157.959 236.084C153.199 243.347 152.148 249.422 151.843 252.376C151.428 256.353 150.875 261.876 154.389 266.239C156.603 268.973 159.481 270.105 160.449 270.464C163.355 271.568 165.734 271.43 170.023 271.127C175.724 270.712 180.068 269.608 181.784 269.138C183.665 268.614 188.037 267.316 193.516 264.61C198.663 262.069 200.877 260.191 207.905 255.469C211.032 253.371 215.653 250.305 221.464 246.771C221.824 244.009 221.52 241.855 221.215 240.502C220.496 237.299 219.029 235.09 217.397 232.66C216.068 230.672 214.795 229.153 213.91 228.159C215.985 226.585 218.697 224.32 221.547 221.283C223.457 219.239 226.473 215.981 228.991 211.397C232.09 205.763 235.189 200.075 233.197 196.154C230.07 189.996 215.183 189.719 204.751 195.104Z" fill="white"/>
<path opacity="0.18" d="M229.544 198.114C227.967 201.759 225.366 206.923 221.215 212.446C215.183 220.427 209.095 224.845 199.908 231.39C173.925 249.891 166.952 254.116 167.727 255.884C168.778 258.286 183.416 253.978 185.547 253.343C201.098 248.759 212.554 241.69 219.721 236.526C217.895 233.737 216.068 230.948 214.242 228.186C216.483 226.585 219.583 224.044 222.488 220.261C224.093 218.19 226.528 214.987 228.105 210.154C229.71 205.349 229.766 201.069 229.544 198.114Z" fill="#9B9797"/>
<path d="M204.641 195.077C194.79 202.395 185.188 210.072 175.946 218.108C171.518 221.946 167.091 225.784 162.94 229.899C159.26 233.544 155.829 237.576 153.753 242.381C151.595 247.351 150.986 253.095 151.512 258.48C151.955 262.926 153.587 267.399 157.655 269.719C161.916 272.121 167.284 271.873 171.989 271.376C177.772 270.796 183.472 269.387 188.868 267.206C200.905 262.318 210.341 253.178 221.714 247.13C222.184 246.882 221.769 246.164 221.299 246.412C211.807 251.466 203.727 258.756 194.209 263.809C189.228 266.46 183.859 268.393 178.325 269.581C173.206 270.658 167.45 271.486 162.248 270.492C159.813 270.023 157.461 269.028 155.718 267.206C154.03 265.411 153.117 263.064 152.646 260.661C151.623 255.442 152.093 249.533 153.809 244.507C155.524 239.481 158.872 235.256 162.525 231.501C166.316 227.607 170.467 224.017 174.534 220.455C184.358 211.839 194.541 203.61 205.056 195.823C205.471 195.491 205.083 194.773 204.641 195.077Z" fill="black"/>
<path d="M177.524 251.686C186.6 248.179 194.818 242.932 202.621 237.189C206.468 234.372 210.259 231.445 214.022 228.518C217.73 225.618 221.272 222.553 224.15 218.825C224.482 218.411 223.762 217.997 223.43 218.411C220.497 222.222 216.817 225.287 213.053 228.242C209.345 231.141 205.61 234.013 201.791 236.802C194.154 242.38 186.157 247.516 177.302 250.913C176.804 251.079 177.026 251.879 177.524 251.686Z" fill="black"/>
<path d="M213.606 228.435C218.947 232.909 221.769 239.84 221.022 246.771C220.967 247.296 221.797 247.296 221.852 246.771C222.599 239.646 219.666 232.467 214.187 227.855C213.8 227.496 213.219 228.076 213.606 228.435Z" fill="black"/>
<path d="M220.967 239.066C222.545 238.597 223.928 237.271 225.256 236.332C226.917 235.172 228.549 234.013 230.209 232.853C230.652 232.549 230.237 231.831 229.794 232.135C228.3 233.184 226.778 234.261 225.284 235.311C223.9 236.277 222.379 237.768 220.746 238.265C220.22 238.403 220.442 239.204 220.967 239.066Z" fill="black"/>
<path d="M216.4 230.837C219.527 229.539 222.405 227.772 225.006 225.59C225.421 225.231 224.812 224.651 224.425 225.01C221.962 227.109 219.195 228.794 216.206 230.036C215.708 230.257 215.93 231.058 216.4 230.837Z" fill="black"/>
<path d="M224.703 225.232C225.229 225.232 225.229 224.403 224.703 224.403C224.177 224.403 224.177 225.232 224.703 225.232Z" fill="black"/>
<path d="M225.698 224.238C226.168 223.133 226.666 221.918 227.552 221.062C228.741 219.902 230.18 220.068 231.702 220.399C234.525 221.035 237.292 221.918 240.059 222.719C242.632 223.437 245.206 224.072 247.862 224.376C249.412 224.542 250.712 224.735 252.096 225.425C253.12 225.922 254.005 226.419 255.14 226.53C255.666 226.585 255.666 225.757 255.14 225.701C253.618 225.563 252.428 224.514 250.989 224.045C249.55 223.575 247.945 223.603 246.451 223.354C243.186 222.83 240.004 221.835 236.849 220.897C235.3 220.455 233.75 220.013 232.173 219.654C231.01 219.405 229.793 219.102 228.631 219.461C226.611 220.068 225.642 222.222 224.895 224.017C224.701 224.514 225.504 224.735 225.698 224.238Z" fill="black"/>
<path d="M230.098 233.46C236.02 232.577 241.886 232.439 247.863 232.328C249.938 232.301 252.152 232.052 253.812 230.699C255.224 229.539 256.026 227.855 255.639 226.06C255.528 225.535 254.725 225.756 254.836 226.281C255.362 228.794 253.093 230.644 250.851 231.196C248.555 231.748 246.064 231.472 243.712 231.527C239.064 231.61 234.47 231.997 229.877 232.687C229.351 232.742 229.6 233.543 230.098 233.46Z" fill="black"/>
<path d="M251.1 227.966C253.148 226.502 255.223 225.039 257.271 223.575C257.409 222.636 257.852 220.593 259.54 218.853C260.038 218.328 261.2 217.113 262.943 216.782C264.77 216.423 266.181 217.251 267.758 217.969C270.304 219.129 272.767 219.571 277.637 220.51C281.483 221.228 283.42 221.587 286.187 221.449C289.95 221.228 292.635 220.234 294.24 221.808C294.406 221.973 295.097 222.719 295.042 223.63C294.959 224.79 293.714 225.536 292.718 226.116C288.373 228.601 285.938 229.319 285.938 229.319C279.795 231.114 276.696 232.025 274.04 232.246C271.881 232.412 268.81 232.494 265.102 231.915C264.023 235.615 260.757 237.99 257.686 237.796C253.729 237.548 250.076 233.102 251.1 227.966Z" fill="black"/>
<path d="M211.364 203.554C211.973 201.704 213.107 199.357 215.238 198.584C216.621 198.087 217.894 198.418 218.309 198.528C220.883 199.164 226.168 198.252 236.711 196.457C241.941 195.574 248.554 194.276 256.164 192.343C256.191 193.751 256.164 195.601 256.081 197.755C255.887 202.588 255.389 206.233 255.278 207.089C254.808 210.513 253.978 216.202 251.459 223.105C250.823 224.873 250.187 226.336 249.744 227.33C250.823 227.827 251.985 228.49 253.12 229.429C257.796 233.157 259.152 238.431 259.595 240.668C258.931 241.469 257.935 242.656 256.662 244.009C251.515 249.477 246.755 252.542 237.679 258.148C232.09 261.6 227.994 264.113 221.436 267.979C213.467 272.673 207.02 276.318 198.995 278.61C197.003 279.19 193.848 279.963 189.863 279.549C187.926 279.356 184.44 278.997 181.092 276.567C176.803 273.474 175.447 268.945 174.893 266.957C173.648 262.511 174.118 258.341 175.281 254.006C176.083 250.968 178.989 240.889 189.089 229.539C191.109 227.275 196.864 222.166 208.32 211.949C211.087 209.491 213.356 207.475 214.878 206.15C213.716 205.266 212.554 204.41 211.364 203.554Z" fill="white"/>
<path opacity="0.18" d="M248.998 195.905C248.361 198.335 247.338 201.842 245.788 205.956C231.648 243.346 200.047 259.501 202.621 263.532C204.503 266.515 222.544 259.086 235.55 251.272C245.29 245.417 252.54 239.149 257.382 234.427C256.607 233.295 255.418 231.748 253.619 230.285C251.876 228.876 250.215 228.02 248.97 227.496C249.828 226.253 250.963 224.375 251.931 221.973C252.567 220.426 253.121 218.769 253.84 215.4C255.003 210.071 255.473 205.846 255.611 204.52C255.943 201.345 256.248 197.23 256.192 192.37C253.785 193.53 251.405 194.717 248.998 195.905Z" fill="#9B9797"/>
<path d="M255.777 192.343C255.805 197.562 255.473 202.781 254.754 207.973C254.089 212.639 253.259 217.444 251.544 221.863C249.69 226.64 246.507 230.119 242.661 233.405C238.732 236.747 234.775 240.033 230.818 243.319C226.28 247.102 221.714 250.858 217.176 254.641C216.761 254.972 217.342 255.552 217.757 255.221C226.086 248.317 234.415 241.441 242.689 234.455C246.341 231.362 249.662 228.159 251.654 223.713C253.591 219.405 254.532 214.683 255.279 210.044C256.22 204.189 256.663 198.28 256.607 192.343C256.607 191.791 255.777 191.791 255.777 192.343Z" fill="black"/>
<path d="M211.836 204.327C212.97 204.935 214.105 205.542 215.267 206.15C215.737 206.398 216.153 205.68 215.682 205.432C214.548 204.824 213.413 204.217 212.251 203.609C211.78 203.361 211.365 204.079 211.836 204.327Z" fill="black"/>
<path d="M215.266 205.819C205.415 213.827 195.066 221.752 186.848 231.473C179.764 239.84 173.926 250.444 173.953 261.683C173.953 266.626 175.309 271.79 178.962 275.297C182.614 278.831 187.9 280.212 192.88 279.964C198.968 279.66 204.751 277.257 210.175 274.606C215.986 271.762 221.492 268.393 227.027 265.052C238.427 258.148 251.156 251.714 259.706 241.193C260.038 240.779 259.457 240.199 259.125 240.613C251.958 249.45 241.886 255.111 232.284 260.91C226.999 264.113 221.769 267.371 216.373 270.409C211.088 273.391 205.581 276.236 199.743 277.92C194.264 279.494 188.149 279.825 182.974 277.092C177.993 274.496 175.447 269.47 174.922 264.002C173.898 252.957 179.46 241.966 186.184 233.571C194.568 223.106 205.526 214.766 215.875 206.371C216.262 206.067 215.681 205.488 215.266 205.819Z" fill="black"/>
<path d="M249.552 227.662C254.754 230.147 258.379 235.063 259.237 240.751C259.32 241.276 260.122 241.055 260.039 240.53C259.181 234.648 255.363 229.485 249.995 226.944C249.496 226.723 249.081 227.441 249.552 227.662Z" fill="black"/>
<path d="M251.211 228.38C252.318 227.938 253.203 227.193 254.144 226.475C255.251 225.619 256.385 224.79 257.492 223.934C257.907 223.603 257.492 222.885 257.077 223.216C256.081 223.962 255.085 224.707 254.089 225.481C253.12 226.226 252.152 227.137 250.989 227.579C250.519 227.773 250.713 228.573 251.211 228.38Z" fill="black"/>
<path d="M257.907 223.602C258.46 221.973 259.125 220.371 260.01 218.88C261.228 216.836 263.054 217.057 265.101 217.582C268.284 218.383 271.328 219.598 274.537 220.316C280.763 221.697 287.155 222.166 293.52 221.752C294.046 221.724 294.046 220.896 293.52 220.923C286.021 221.42 278.467 220.647 271.217 218.604C269.474 218.107 267.786 217.472 266.042 216.974C264.714 216.588 263.137 216.146 261.753 216.422C260.508 216.671 259.789 217.61 259.18 218.659C258.322 220.15 257.658 221.752 257.105 223.381C256.938 223.878 257.741 224.099 257.907 223.602Z" fill="black"/>
<path d="M259.097 236.94C261.172 235.366 263.22 233.792 265.295 232.218C265.71 231.887 265.295 231.169 264.88 231.5C262.805 233.074 260.757 234.648 258.682 236.222C258.267 236.554 258.682 237.272 259.097 236.94Z" fill="black"/>
<path d="M265.267 232.025C272.019 233.489 278.909 232.384 285.301 229.954C288.207 228.849 291.527 227.607 294.018 225.729C295.761 224.431 296.01 221.946 293.713 221.062C293.215 220.869 292.994 221.67 293.492 221.863C294.737 222.332 294.875 223.685 294.018 224.624C293.603 225.094 293.021 225.398 292.468 225.729C291.333 226.364 290.171 226.944 289.009 227.496C286.546 228.656 284.001 229.65 281.372 230.423C276.197 231.915 270.774 232.412 265.461 231.252C264.963 231.114 264.742 231.915 265.267 232.025Z" fill="black"/>
<path d="M193.157 112.758C197.363 109.279 203.644 105.081 212.029 102.596C215.958 101.436 220.883 100 227.414 100.553C237.431 101.409 244.321 106.324 246.756 108.119C250.575 110.908 253.176 113.863 254.781 115.934C255.085 135.292 255.5 154.677 256.026 174.034C256.192 179.999 256.358 185.991 256.552 191.956C252.622 194.386 247.116 197.12 240.143 198.722C223.817 202.45 210.23 197.479 204.723 195.077C204.696 190.189 204.391 182.843 202.897 174.034C200.462 159.565 196.671 153.738 194.291 141.284C193.102 134.85 191.967 125.185 193.157 112.758Z" fill="#0A3871"/>
<path d="M243.185 117.536C241.83 119.027 241.581 120.712 241.664 127.174C241.719 133.967 242.079 138.606 242.3 143.991C242.466 147.884 242.604 150.977 242.521 155.009C242.438 160.09 242.106 164.26 241.802 167.049C239.09 170.086 236.683 172.461 234.884 174.173C230.844 178.012 226.444 182.154 219.942 186.048C217.368 187.566 215.155 188.671 213.66 189.361C212.304 189.14 210.783 188.809 209.122 188.395C205.193 187.401 203.56 186.517 200.6 186.517C199.714 186.517 196.919 186.517 196.643 187.511C196.394 188.34 197.943 189.637 199.161 190.273C200.295 190.852 200.793 190.687 201.928 191.211C203.201 191.819 204.031 192.703 204.529 193.365C204.003 194.111 203.201 195.243 202.315 196.707C201.291 198.419 201.07 199.082 199.88 201.125C198.635 203.279 197.998 204.356 197.445 204.908C196.587 205.709 196.061 205.875 192.215 207.587C188.397 209.299 187.732 209.685 187.732 210.155C187.732 210.624 188.48 210.735 191.44 212.005C193.848 213.027 194.069 213.248 195.314 213.607C196.864 214.048 197.805 214.325 198.939 214.076C200.738 213.717 201.9 212.364 202.398 211.646C202.647 211.867 203.256 212.336 204.058 212.364C204.695 212.364 205.221 212.115 205.636 211.784C207.379 210.541 208.237 208.249 209.952 205.681C210.257 205.24 211.336 203.61 213.079 201.788C214.158 200.628 215.155 199.772 215.874 199.192C216.843 198.971 218.281 198.64 219.997 198.143C226.666 196.237 231.481 193.945 235.521 192.012C237.873 190.88 240.529 189.389 245.814 186.434C250.408 183.866 252.787 182.43 254.89 179.613C255.112 179.31 256.246 177.791 257.242 175.554C257.547 174.864 258.626 172.406 259.207 168.098C259.484 166.193 259.484 165.143 259.511 159.179C259.567 151.585 259.567 152.496 259.567 151.723C259.539 140.594 258.958 141.588 258.764 131.371C258.737 130.405 258.709 127.781 257.907 124.468C257.049 120.878 255.97 119.276 255.361 118.475C254.586 117.453 253.645 116.238 252.04 115.548C249.107 114.25 245.205 115.3 243.185 117.536Z" fill="white"/>
<path opacity="0.25" d="M252.069 115.521C252.733 117.702 253.536 120.85 254.089 124.661C254.753 129.272 255.002 134.354 253.508 147.636C252.263 158.737 251.654 164.287 250.049 169.479C247.752 176.88 246.092 182.264 241.028 186.517C237.763 189.251 234.194 190.521 227.027 193.034C221.769 194.884 217.259 195.989 214.16 196.679C211.946 199.661 208.653 203.445 203.977 207.034C200.324 209.851 196.81 211.784 193.904 213.11C194.319 213.386 196.035 214.49 198.359 214.187C201.071 213.828 202.538 211.895 202.787 211.536C203.313 211.922 204.087 212.336 204.945 212.198C206.716 211.922 207.657 209.409 208.127 208.277C209.151 205.93 211.199 202.699 215.792 199.164C218.836 198.364 222.959 197.149 227.746 195.326C234.415 192.758 238.898 190.273 243.712 187.594C251.433 183.286 253.176 181.519 254.449 179.807C256.773 176.686 257.742 173.483 258.157 172.075C258.904 169.562 259.042 166.745 259.319 161.25C259.513 157.163 259.513 154.015 259.513 151.64C259.513 147.553 259.43 144.516 259.347 141.892C259.236 138.081 259.015 133.608 258.461 128.251C258.046 124.357 257.742 122.811 256.856 121.071C255.5 118.31 253.48 116.542 252.069 115.521Z" fill="#9B9797"/>
<path d="M242.77 117.426C241.331 121.016 241.165 124.882 241.248 128.72C241.331 132.945 241.552 137.142 241.746 141.367C242.133 149.928 242.41 158.516 241.386 167.049C241.331 167.573 242.161 167.573 242.216 167.049C243.213 158.709 242.991 150.287 242.604 141.92C242.41 137.777 242.189 133.635 242.078 129.466C241.967 125.461 242.05 121.43 243.572 117.647C243.766 117.15 242.964 116.929 242.77 117.426Z" fill="black"/>
<path d="M242.993 166.331C240.447 167.739 238.4 169.782 236.435 171.909C234.304 174.201 232.174 176.437 229.794 178.481C224.924 182.706 219.445 186.185 213.579 188.891C213.08 189.112 213.523 189.83 213.994 189.609C219.639 187.014 224.924 183.7 229.656 179.696C232.008 177.735 234.166 175.581 236.241 173.345C238.4 170.997 240.558 168.623 243.38 167.076C243.879 166.772 243.463 166.054 242.993 166.331Z" fill="black"/>
<path d="M213.771 188.946C210.728 188.311 207.656 187.649 204.612 186.958C203.09 186.627 201.541 186.213 199.991 185.937C199.023 185.771 197.999 185.688 197.141 186.24C195.813 187.096 195.813 188.67 197.003 189.609C197.861 190.3 198.967 190.603 199.991 190.935C201.652 191.459 203.063 192.122 204.142 193.53C204.474 193.945 205.193 193.53 204.861 193.116C203.893 191.874 202.731 190.99 201.236 190.465C200.213 190.106 199.078 189.885 198.137 189.361C197.473 189.002 196.615 188.449 197.113 187.455C197.584 186.516 198.774 186.599 199.632 186.737C201.928 187.069 204.225 187.731 206.522 188.256C208.874 188.781 211.226 189.278 213.578 189.775C214.076 189.858 214.297 189.057 213.771 188.946Z" fill="black"/>
<path d="M203.478 193.669C202.26 195.905 201.015 198.114 199.797 200.351C199.189 201.428 198.663 202.588 197.943 203.637C197.196 204.714 196.2 205.267 195.038 205.819C192.852 206.841 190.5 207.669 188.397 208.856C187.456 209.409 186.847 210.403 187.65 211.369C188.646 212.557 190.61 212.087 191.939 211.866C193.765 211.563 195.508 210.955 197.169 210.182C200.627 208.525 203.561 205.929 205.664 202.726C205.968 202.284 205.249 201.87 204.944 202.312C203.09 205.184 200.517 207.503 197.501 209.105C196.062 209.851 194.512 210.458 192.935 210.817C192.049 211.038 191.109 211.231 190.168 211.259C189.31 211.314 189.089 211.425 188.673 210.569C188.148 210.071 188.203 209.74 188.812 209.574C189.006 209.492 189.172 209.409 189.365 209.326C191.136 208.497 192.935 207.697 194.706 206.868C196.089 206.233 197.445 205.681 198.386 204.438C199.493 202.975 200.268 201.235 201.153 199.633C202.177 197.783 203.201 195.933 204.197 194.11C204.446 193.613 203.727 193.199 203.478 193.669Z" fill="black"/>
<path d="M216.123 199.716C223.511 197.645 230.678 194.884 237.541 191.46C240.944 189.748 244.265 187.897 247.502 185.854C250.408 184.031 253.479 182.181 255.555 179.392C255.859 178.95 255.14 178.536 254.835 178.978C252.677 181.905 249.301 183.81 246.257 185.688C243.158 187.594 239.948 189.361 236.683 190.99C230.014 194.276 223.069 196.927 215.902 198.943C215.404 199.054 215.625 199.854 216.123 199.716Z" fill="black"/>
<path d="M243.324 118.171C245.621 113.67 251.515 114.692 254.42 117.895C257.907 121.761 258.073 127.422 258.46 132.337C259.29 143.079 259.456 153.904 258.792 164.646C258.46 169.865 257.685 175.388 254.199 179.53C253.867 179.945 254.448 180.524 254.78 180.11C257.907 176.355 258.986 171.605 259.429 166.855C260.01 160.78 260.01 154.622 259.954 148.519C259.899 142.141 259.595 135.734 259.014 129.383C258.571 124.605 257.713 119.331 253.756 116.155C250.38 113.449 244.735 113.532 242.577 117.757C242.356 118.227 243.075 118.641 243.324 118.171Z" fill="black"/>
<path d="M191.192 212.336C193.212 213.248 195.648 214.628 197.944 214.628C200.158 214.601 201.791 212.778 203.285 211.397C207.574 207.421 211.863 203.444 216.152 199.496C216.539 199.137 215.958 198.557 215.571 198.916C211.946 202.285 208.321 205.626 204.696 208.995C203.091 210.458 201.431 212.557 199.411 213.468C197.031 214.545 193.766 212.612 191.635 211.646C191.137 211.397 190.722 212.115 191.192 212.336Z" fill="black"/>
<path d="M202.454 211.757C203.367 213.469 205.387 212.778 206.411 211.591C208.431 209.216 210.008 206.344 211.724 203.776C212.028 203.334 211.309 202.92 211.004 203.362C209.925 204.963 208.846 206.565 207.767 208.167C207.158 209.05 204.474 213.828 203.173 211.342C202.924 210.873 202.205 211.287 202.454 211.757Z" fill="black"/>
<path d="M196.034 210.403C196.864 210.845 197.888 211.287 198.801 210.845C199.271 210.596 199.465 210.21 199.686 209.768C200.074 209.022 200.461 208.442 201.18 207.973C201.623 207.669 201.208 206.951 200.765 207.255C200.101 207.697 199.548 208.249 199.16 208.967C198.884 209.492 198.718 210.127 197.998 210.182C197.472 210.237 196.891 209.906 196.449 209.685C196.006 209.464 195.563 210.155 196.034 210.403Z" fill="black"/>
<path d="M190.361 52.614C189.393 54.5746 188.424 57.8607 188.12 58.9376C187.677 60.484 186.681 64.1015 186.127 68.9064C185.823 71.5574 185.491 74.4569 185.768 78.2953C185.906 80.1179 186.1 82.9898 187.179 86.552C187.898 88.9821 188.95 92.4891 191.8 96.079C194.29 99.1994 197.141 101.16 199.41 102.347C200.848 102.375 202.592 102.292 204.529 101.933C208.015 101.27 210.727 99.9726 212.553 98.9233C212.802 100.332 213.134 101.823 213.55 103.369C214.407 106.572 215.459 109.389 216.51 111.819C217.645 111.626 219.001 111.294 220.44 110.632C225.005 108.505 227.191 104.584 227.966 102.955C227.551 101.353 227.219 99.6136 226.915 97.8187C225.863 91.1084 226.14 85.1161 226.804 80.2559C227.385 80.4492 228.326 80.6978 229.488 80.6425C231.757 80.5045 233.307 79.2618 234.082 78.5991C234.746 78.0468 237.762 75.3682 237.651 71.3917C237.623 70.4528 237.568 68.1608 235.936 66.9182C234.414 65.786 232.366 66.2002 230.872 66.504C229.156 66.863 227.883 67.5809 227.108 68.078C227.69 66.1726 228.907 61.2849 227.108 55.5963C226.721 54.3813 224.148 46.6492 216.566 43.3079C206.272 38.7239 193.903 45.5171 190.361 52.614Z" fill="white"/>
<path opacity="0.24" d="M221.629 52.7801C221.851 55.3483 222.017 59.0762 221.629 63.4945C220.439 76.8875 215.127 86.1935 213.743 88.5131C211.64 92.0478 208.043 97.1841 202.287 102.237C204.003 102.017 205.967 101.63 208.07 100.884C213.854 98.8409 217.728 95.3339 219.831 93.0419C219.997 96.1071 220.522 99.835 221.768 103.922C222.321 105.662 222.93 107.263 223.566 108.699C225.033 106.794 226.472 104.888 227.938 102.955C227.634 101.161 227.357 99.2551 227.164 97.2945C226.527 91.3574 226.527 85.8898 226.859 81.0296C228.104 81.0573 229.903 80.9468 231.812 80.2012C240.169 76.8875 244.928 63.7154 240.418 56.5357C240.224 56.2319 239.228 54.6855 237.181 53.3048C230.844 49.0522 222.791 52.2831 221.629 52.7801Z" fill="#9B9797"/>
<path d="M188.342 58.1094C187.788 56.204 187.013 52.5589 187.816 48.0854C188.065 46.7047 188.923 42.2587 191.967 38.7517C196.422 33.6431 202.011 34.6096 209.261 32.0138C213.854 30.3846 220.163 26.9604 226.556 18.897C225.974 21.8793 225.393 24.8893 224.812 27.8717C225.808 28.1478 229.157 28.8658 232.588 27.1813C238.288 24.3922 238.786 17.6543 238.814 17.3506C239.506 18.897 240.751 22.3212 240.197 26.6842C239.81 29.6666 238.731 31.9034 237.956 33.2565C238.288 33.6154 240.059 35.438 242.107 35.1619C244.597 34.8305 246.922 31.4339 246.257 27.0432C246.811 28.6725 247.475 31.3511 247.309 34.6372C247.088 38.6413 245.759 41.6512 244.874 43.2805C245.095 43.4738 246.506 44.744 248.499 44.4955C250.242 44.2746 251.736 43.0043 252.317 41.2094C252.179 43.0596 251.847 45.7382 250.768 48.8034C249.301 52.9455 248.084 53.2769 247.475 56.2316C246.506 60.8708 248.997 62.4449 248.333 66.587C247.779 70.0664 245.51 72.248 242.633 75.037C237.403 80.0904 231.398 82.8243 226.362 84.343C226.583 82.7966 226.832 81.2502 227.054 79.7038C227.69 80.0904 228.797 80.6151 230.18 80.5599C233.003 80.4494 234.774 77.9365 235.715 76.5834C236.794 75.0646 238.593 72.4689 237.624 69.6798C236.822 67.4154 234.691 66.4766 234.497 66.3937C232.007 65.3444 228.797 66.2832 226.722 68.8238C225.559 64.2674 224.425 59.7386 223.263 55.1823C219.333 52.697 215.432 50.2393 211.502 47.754C209.565 47.395 204.28 46.677 198.359 49.3004C192.382 51.9514 189.338 56.4525 188.342 58.1094Z" fill="#0A3871"/>
<path d="M187.926 57.9989C185.574 66.7803 184.163 76.114 186.321 85.0886C188.092 92.3788 192.575 100.691 200.212 103.066C200.71 103.231 200.932 102.43 200.434 102.265C192.769 99.8899 188.48 91.2466 186.902 83.9564C185.048 75.396 186.46 66.5594 188.701 58.2198C188.867 57.7228 188.064 57.5019 187.926 57.9989Z" fill="black"/>
<path d="M200.821 102.928C213.577 101.63 224.231 92.4343 227.219 79.9526C227.33 79.4279 226.555 79.207 226.417 79.7316C223.511 91.7991 213.245 100.829 200.821 102.099C200.295 102.155 200.267 102.983 200.821 102.928Z" fill="black"/>
<path d="M226.498 80.1728C232.199 83.6522 237.761 76.362 238.12 71.2533C238.314 68.5471 237.069 66.4761 234.385 65.7029C231.894 64.9849 229.182 65.7305 227.412 67.6082C227.052 67.9949 227.633 68.5748 227.993 68.1882C229.459 66.6141 231.673 65.9238 233.804 66.3932C234.91 66.6417 236.128 67.2493 236.764 68.2434C237.456 69.3203 237.373 70.8115 237.207 71.9989C236.543 76.2792 231.784 82.4096 226.913 79.4272C226.471 79.1787 226.028 79.8966 226.498 80.1728Z" fill="black"/>
<path d="M226.445 80.1184C225.365 87.7676 225.753 95.5272 227.579 103.038C227.717 103.563 228.52 103.342 228.382 102.817C226.583 95.4443 226.196 87.8228 227.247 80.3393C227.302 79.8146 226.5 79.5937 226.445 80.1184Z" fill="black"/>
<path d="M212.137 99.0336C212.995 103.507 214.323 107.843 216.149 112.04C216.371 112.537 217.09 112.095 216.869 111.626C215.07 107.511 213.77 103.231 212.94 98.8127C212.829 98.288 212.054 98.5089 212.137 99.0336Z" fill="black"/>
<path d="M216.731 112.151C222.072 111.295 226.582 107.622 228.602 102.624C228.796 102.127 227.993 101.906 227.799 102.403C225.89 107.153 221.546 110.549 216.51 111.35C215.984 111.433 216.205 112.234 216.731 112.151Z" fill="black"/>
<path d="M212.803 100.001C213.937 100.056 214.712 99.2825 215.57 98.6198C216.704 97.7361 217.783 96.7972 218.78 95.8031C220.633 93.953 222.128 91.8267 223.096 89.3966C223.29 88.8995 222.487 88.6786 222.294 89.1757C221.436 91.3296 220.108 93.235 218.503 94.8919C217.783 95.6651 217.009 96.3554 216.206 97.0458C215.321 97.7914 214.048 99.2273 212.803 99.1721C212.277 99.1445 212.277 99.9729 212.803 100.001Z" fill="black"/>
<path d="M212.857 99.5583C215.209 98.0396 217.395 96.2999 219.442 94.3945C219.83 94.0355 219.249 93.428 218.861 93.8146C216.869 95.6923 214.738 97.3768 212.442 98.868C211.971 99.1165 212.414 99.8345 212.857 99.5583Z" fill="black"/>
<path d="M196.586 59.601C195.036 66.6427 194.151 73.7948 193.957 81.0022C193.957 81.4164 194.51 81.5544 194.732 81.2231C195.811 79.511 196.89 77.7713 197.969 76.0592C198.246 75.6174 197.527 75.1755 197.25 75.645C196.171 77.3571 195.092 79.0968 194.012 80.8089C194.261 80.8917 194.538 80.9469 194.787 81.0298C194.981 73.9053 195.866 66.8084 197.388 59.8495C197.499 59.2972 196.696 59.0763 196.586 59.601Z" fill="black"/>
<path d="M197.694 91.3847C197.03 90.142 196.587 88.8165 196.477 87.4082C196.394 86.4141 196.615 82.3824 198.497 83.984C199.493 84.8401 199.354 86.7178 199.382 87.9605C199.382 88.5404 199.382 89.1479 199.327 89.7278C199.299 90.142 199.244 90.5562 199.161 90.9428C198.441 91.4399 197.888 91.4123 197.528 90.8876C197.168 90.501 196.56 91.0809 196.947 91.4675C198.137 92.6825 199.686 92.7378 200.019 90.8324C200.268 89.4793 200.268 88.0433 200.157 86.6902C200.074 85.6133 200.074 84.0668 199.271 83.2384C198.082 82.0234 196.394 83.1556 195.923 84.4534C195.065 86.7731 195.896 89.7002 197.002 91.7989C197.224 92.2683 197.943 91.8541 197.694 91.3847Z" fill="black"/>
<path d="M203.421 66.5315C204.251 70.4251 209.37 70.7288 210.892 67.139C211.086 66.6419 210.283 66.421 210.089 66.9181C208.844 69.8452 204.86 69.2929 204.223 66.3105C204.112 65.8135 203.31 66.0068 203.421 66.5315Z" fill="black"/>
<path d="M201.789 56.9497C202.84 54.6025 205.552 53.4703 208.042 53.995C210.616 54.5472 212.58 56.5355 213.853 58.717C214.13 59.1865 214.849 58.7722 214.573 58.3028C213.106 55.7899 210.782 53.5531 207.793 53.1113C205.109 52.7247 202.231 53.995 201.069 56.5079C200.848 57.0325 201.567 57.4467 201.789 56.9497Z" fill="black"/>
<path d="M185.574 57.8611C186.321 56.3147 187.621 54.6302 189.531 54.6578C191.357 54.6855 192.685 56.2871 193.598 57.6954C193.875 58.1373 194.594 57.723 194.318 57.2812C193.266 55.5967 191.689 53.857 189.531 53.8294C187.317 53.8018 185.767 55.6244 184.882 57.4469C184.633 57.9163 185.352 58.3306 185.574 57.8611Z" fill="black"/>
<path d="M190.471 70.3706C190.96 70.3706 191.357 68.5532 191.357 66.3113C191.357 64.0694 190.96 62.252 190.471 62.252C189.982 62.252 189.586 64.0694 189.586 66.3113C189.586 68.5532 189.982 70.3706 190.471 70.3706Z" fill="black"/>
<path d="M193.018 114.056C192.935 115.078 192.825 116.486 192.769 118.115C192.52 123.694 192.742 127.919 192.825 129.051C193.046 132.723 193.544 137.528 194.706 143.106C193.599 144.377 191.939 146.255 189.808 148.464C185.768 152.689 183.693 154.843 180.372 157.079C176.665 159.565 174.091 160.338 172.708 160.697C170.964 161.111 169.304 161.498 167.284 161.056C163.991 160.31 162.026 157.88 161.307 156.941C159.481 154.622 159.066 152.357 158.319 147.939C157.765 144.708 157.654 142.25 157.488 137.501C157.405 135.236 157.295 132.475 157.35 128.775C157.405 124.605 157.627 119.662 158.235 114.139C158.512 111.654 158.9 108.589 159.508 105.109C159.038 104.446 158.54 103.784 158.014 103.093C157.461 102.375 156.935 101.685 156.382 100.995C154.97 102.182 153.587 103.397 152.175 104.584C151.816 104.723 151.179 104.943 150.405 104.861C148.938 104.723 148.08 103.701 147.776 103.369C146.42 101.823 146.614 99.8624 146.669 99.4758C148.578 97.4047 150.488 95.3612 152.425 93.2902C152.452 92.1027 152.618 90.5563 153.089 88.8442C153.448 87.574 153.891 86.5246 154.306 85.641C154.666 84.923 155.164 84.1222 155.8 83.3214C156.935 81.8302 158.152 80.7809 159.149 80.0629C158.346 80.4219 158.152 80.4219 158.097 80.3666C157.959 80.1457 159.259 78.5165 161.086 78.3508C162.109 78.2403 162.912 78.6269 163.465 78.8755C164.323 79.2897 164.904 79.8144 165.264 80.201C166.98 78.7374 168.695 77.2738 170.411 75.8379C171.02 76.1969 171.628 76.6111 172.237 77.0253C173.648 77.9918 174.921 78.9583 176.056 79.8972C175.641 80.4219 175.115 81.0018 174.451 81.5817C173.344 82.5482 172.237 83.1281 171.379 83.5147C171.905 83.6804 172.846 84.067 173.316 84.9782C173.787 85.8619 173.593 86.8284 173.316 88.0434C173.123 88.8719 172.874 89.5346 172.68 89.9764C172.791 91.1362 172.846 92.7103 172.514 94.4776C171.988 97.3771 170.771 99.531 169.94 100.774C169.913 101.851 169.885 103.535 169.94 105.606C170.162 114.139 171.407 119.137 172.209 125.433C172.68 129.023 173.15 134.353 173.012 141.063C173.648 140.649 174.562 139.986 175.585 139.13C178.186 136.948 179.847 134.767 182.033 131.564C184.191 128.443 185.602 126.124 187.512 123.031C188.702 121.015 190.611 117.95 193.018 114.056Z" fill="white"/>
<path opacity="0.24" d="M167.865 88.8438C167.283 90.114 166.702 91.4119 166.121 92.7374C164.433 96.7138 163.05 100.525 161.915 104.17C161.666 109.914 161.528 114.718 161.417 118.198C161.279 123.472 161.611 129.768 162.22 142.36C162.469 147.552 162.69 150.7 165.125 152.992C167.671 155.367 171.213 155.422 173.205 155.422C183.831 155.394 191.773 146.364 193.959 143.741C190.998 148.767 187.622 152.053 185.325 153.986C182.724 156.168 179.376 158.901 174.174 160.255C169.774 161.414 167.782 161.166 167.256 161.055C163.465 160.144 161.362 156.996 160.615 155.919C158.816 153.24 158.235 150.451 157.903 144.459C157.571 138.301 157.931 136.672 158.041 128.194C158.124 120.103 157.82 117.811 158.429 112.206C158.788 108.919 159.231 106.213 159.591 104.391C158.512 103.258 157.433 102.126 156.353 101.022C155.44 101.823 154.499 102.596 153.559 103.397C152.95 103.921 152.313 104.446 151.705 104.943C151.151 104.998 150.349 104.971 149.491 104.612C147.277 103.673 145.894 100.939 146.585 100C147.028 99.3648 148.19 99.8619 149.795 99.8619C152.562 99.8895 154.416 98.4812 158.097 95.8302C160.698 93.9248 163.686 91.7985 167.865 88.8438Z" fill="#9B9797"/>
<path d="M192.658 113.835C186.266 122.644 181.534 132.75 173.454 140.262C173.067 140.621 173.648 141.2 174.035 140.841C182.17 133.275 186.93 123.113 193.377 114.249C193.709 113.835 192.99 113.42 192.658 113.835Z" fill="black"/>
<path d="M168.862 161.691C179.819 160.973 187.678 151.805 194.264 144.017C194.596 143.603 194.015 143.023 193.683 143.437C187.291 151.059 179.543 160.172 168.889 160.89C168.336 160.89 168.336 161.718 168.862 161.691Z" fill="black"/>
<path d="M163.659 83.9013C163.714 86.0828 165.153 87.9606 167.256 88.5681C167.782 88.7062 168.003 87.9054 167.478 87.7673C165.734 87.2703 164.544 85.6962 164.489 83.9013C164.461 83.3766 163.631 83.3766 163.659 83.9013Z" fill="black"/>
<path d="M164.516 83.6527C164.793 81.2502 169.082 82.9899 170.244 83.5974C171.379 84.1773 172.513 84.7573 172.762 86.138C172.956 87.1873 172.624 88.2919 172.347 89.3136C172.209 89.8383 173.011 90.0592 173.15 89.5345C173.537 88.1538 173.952 86.5798 173.371 85.2267C172.818 83.846 171.296 83.2109 170.051 82.6033C168.778 81.9958 167.394 81.554 165.955 81.7197C165.374 81.8025 164.627 81.9406 164.157 82.3272C163.659 82.7138 163.769 82.9899 163.686 83.6803C163.631 84.1774 164.461 84.1774 164.516 83.6527Z" fill="black"/>
<path d="M172.071 89.1476C171.988 91.2463 172.458 93.2898 171.96 95.3885C171.49 97.3215 170.549 99.1164 169.608 100.856C169.359 101.326 170.079 101.74 170.328 101.27C171.296 99.4478 172.265 97.5976 172.763 95.6094C173.289 93.4554 172.818 91.3291 172.901 89.1476C172.929 88.5953 172.099 88.5953 172.071 89.1476Z" fill="black"/>
<path d="M169.607 100.884C168.971 115.437 173.149 129.686 172.485 144.238C172.457 144.763 173.288 144.763 173.315 144.238C173.979 129.686 169.801 115.437 170.437 100.884C170.465 100.359 169.635 100.359 169.607 100.884Z" fill="black"/>
<path d="M156.021 101.187C156.851 102.347 157.737 103.451 158.733 104.473C159.093 104.86 159.674 104.28 159.314 103.893C158.373 102.899 157.515 101.877 156.74 100.773C156.408 100.331 155.689 100.745 156.021 101.187Z" fill="black"/>
<path d="M159.204 104.252C157.627 113.227 156.852 122.34 156.88 131.453C156.907 135.981 157.129 140.538 157.571 145.039C157.931 148.877 158.374 152.909 160.394 156.278C162.22 159.343 165.43 161.663 169.083 161.58C169.608 161.552 169.608 160.724 169.083 160.751C163.963 160.889 160.671 156.333 159.481 151.86C158.153 146.944 158.042 141.587 157.848 136.534C157.433 125.819 158.18 115.05 160.034 104.501C160.089 103.949 159.287 103.728 159.204 104.252Z" fill="black"/>
<path d="M153.973 91.8538C151.372 94.0354 148.854 96.3274 146.474 98.7298C146.087 99.1164 146.695 99.6963 147.055 99.3097C149.462 96.9073 151.953 94.6153 154.554 92.4337C154.969 92.1024 154.388 91.5225 153.973 91.8538Z" fill="black"/>
<path d="M146.226 99.4755C145.811 102.679 148.246 105.385 151.483 105.357C152.009 105.357 152.009 104.529 151.483 104.529C148.689 104.557 146.696 102.209 147.056 99.4755C147.139 98.9509 146.309 98.9509 146.226 99.4755Z" fill="black"/>
<path d="M147 99.2825C149.905 99.3654 151.925 101.961 151.316 104.778C151.206 105.302 152.008 105.523 152.119 104.999C152.866 101.602 150.486 98.5646 147 98.4541C146.474 98.4541 146.474 99.2825 147 99.2825Z" fill="black"/>
<path d="M152.453 104.861C155.607 101.989 158.817 99.1445 161.889 96.1898C163.3 94.8367 164.656 93.456 165.929 91.9648C166.62 91.164 168.364 89.59 168.391 88.4854C168.391 88.3473 168.308 88.1816 168.198 88.1264C168.142 88.0988 168.087 88.0712 168.059 88.0712C167.893 87.9883 167.672 87.9883 167.561 88.1264C167.534 88.154 167.506 88.1816 167.478 88.2369C167.146 88.6511 167.727 89.231 168.059 88.8168C168.087 88.7892 168.115 88.7615 168.142 88.7063C167.976 88.7339 167.81 88.7615 167.644 88.7615C167.589 88.513 167.506 88.513 167.395 88.7892C167.257 88.9825 167.118 89.1758 166.952 89.3691C166.62 89.7833 166.316 90.1975 165.956 90.6117C165.403 91.3021 164.794 91.9648 164.213 92.6276C162.995 93.953 161.723 95.1957 160.422 96.4107C157.6 99.0617 154.722 101.63 151.872 104.253C151.457 104.64 152.065 105.22 152.453 104.861Z" fill="black"/>
<path d="M152.811 93.4C153.005 92.0745 153.199 90.749 153.392 89.4235C153.531 88.4294 153.642 87.3248 154.195 86.4412C155.468 84.3977 157.266 85.8613 158.235 87.242C158.65 87.8219 159.037 88.457 159.452 89.0369C159.674 89.3683 160.753 90.5557 160.615 90.9699C160.753 90.8595 160.891 90.7766 161.002 90.6662C160.947 90.6662 160.919 90.6662 160.864 90.6662C160.338 90.6386 160.338 91.467 160.864 91.4946C160.919 91.4946 160.947 91.4946 161.002 91.4946C161.196 91.4946 161.362 91.3565 161.389 91.1908C161.583 90.5005 161.113 90.0863 160.753 89.534C160.061 88.5123 159.397 87.4629 158.678 86.4688C157.931 85.4471 156.962 84.4529 155.579 84.591C154.25 84.7291 153.448 85.7508 153.033 86.9382C152.341 88.8989 152.286 91.1356 151.981 93.1791C151.926 93.7038 152.728 93.9247 152.811 93.4Z" fill="black"/>
<path d="M154.112 90.2799C154.859 91.7434 156.105 93.2346 157.875 93.3451C159.342 93.4555 160.726 92.6271 161.113 91.1911C161.251 90.6665 160.449 90.4455 160.311 90.9702C159.951 92.2957 158.484 92.7928 157.267 92.3786C156.105 91.9643 155.357 90.9426 154.832 89.8933C154.583 89.3962 153.863 89.8104 154.112 90.2799Z" fill="black"/>
<path d="M155.136 84.8952C155.274 83.5421 156.823 83.1832 157.875 83.5421C158.982 83.9011 159.84 84.8952 160.614 85.6961C161.223 86.3312 162.413 87.2149 162.579 88.0985C162.8 89.2859 161.306 90.0867 160.31 90.3905C159.812 90.5286 160.006 91.3294 160.531 91.1913C161.749 90.8323 163.52 89.7554 163.714 88.3194C163.797 87.7395 163.437 87.4358 163.049 87.0216C162.275 86.1931 161.528 85.3923 160.725 84.5915C159.646 83.4869 158.262 82.2995 156.602 82.5756C155.357 82.7689 154.444 83.5974 154.305 84.8676C154.25 85.4199 155.08 85.4199 155.136 84.8952Z" fill="black"/>
<path d="M156.63 82.8517C157.017 82.4099 157.211 81.83 157.571 81.3881C158.456 80.2836 159.84 81.3053 160.753 81.968C162.524 83.2107 164.405 85.4751 162.801 87.629C162.496 88.0708 163.216 88.485 163.52 88.0432C165.236 85.7236 163.548 83.045 161.583 81.5538C160.67 80.8635 159.286 79.6208 158.041 79.9798C156.934 80.2836 156.741 81.5538 156.049 82.2994C155.689 82.6584 156.27 83.2383 156.63 82.8517Z" fill="black"/>
<path d="M159.424 80.3389C160.393 79.1515 161.666 77.9089 163.16 79.1515C164.156 79.9524 164.793 81.0845 165.152 82.272C165.318 82.769 166.093 82.5757 165.955 82.051C165.484 80.4494 164.405 78.5992 162.8 77.9365C161.168 77.2738 159.812 78.5716 158.843 79.759C158.511 80.1456 159.092 80.7532 159.424 80.3389Z" fill="black"/>
<path d="M165.541 80.4495C167.256 78.9859 168.972 77.5224 170.687 76.0864C171.102 75.7274 170.494 75.1475 170.106 75.5065C168.391 76.9701 166.675 78.4336 164.959 79.8696C164.544 80.2286 165.153 80.8085 165.541 80.4495Z" fill="black"/>
<path d="M171.655 83.9844C173.288 82.797 174.865 81.5267 176.332 80.146C176.719 79.787 176.138 79.2071 175.75 79.5661C174.312 80.8916 172.817 82.1342 171.24 83.2664C170.797 83.5702 171.212 84.2881 171.655 83.9844Z" fill="black"/>
<path d="M184.081 81.9128C193.311 81.9128 200.794 74.4454 200.794 65.2338C200.794 56.0222 193.311 48.5547 184.081 48.5547C174.85 48.5547 167.367 56.0222 167.367 65.2338C167.367 74.4454 174.85 81.9128 184.081 81.9128Z" stroke="black" stroke-width="3" stroke-miterlimit="10"/>
<path d="M173.952 67.2767C180.095 63.3555 186.376 59.6552 192.796 56.1758C193.266 55.9272 192.851 55.2092 192.381 55.4578C185.961 58.9096 179.68 62.6099 173.537 66.5588C173.094 66.8625 173.509 67.5805 173.952 67.2767Z" fill="black"/>
<path d="M174.643 74.5119C179.707 70.8116 184.826 67.2493 190.056 63.7699C190.499 63.4661 190.084 62.7481 189.641 63.0519C184.439 66.5313 179.292 70.1212 174.228 73.7939C173.786 74.0977 174.201 74.8156 174.643 74.5119Z" fill="black"/>
</g>
<defs>
<clipPath id="clip0_266011_7246">
<rect width="336" height="304" fill="white"/>
</clipPath>
</defs>
</svg>
